<?xml version="1.0" standalone="no"?>
<!DOCTYPE svg PUBLIC "-//W3C//DTD SVG 20010904//EN"
 "http://www.w3.org/TR/2001/REC-SVG-20010904/DTD/svg10.dtd">
<svg version="1.0" xmlns="http://www.w3.org/2000/svg"
 width="260.000000pt" height="260.000000pt" viewBox="0 0 260.000000 260.000000"
 preserveAspectRatio="xMidYMid meet">
<metadata>
Created by potrace 1.11, written by Peter Selinger 2001-2013
</metadata>
<g transform="translate(0.000000,260.000000) scale(0.100000,-0.100000)"
fill="#000000" stroke="none">
<path d="M1480 2104 c-14 -3 -34 -9 -45 -13 -11 -5 -40 -14 -65 -21 -69 -19
-198 -88 -208 -113 -11 -24 -42 -26 -77 -6 -47 28 -52 21 -15 -21 23 -26 30
-43 30 -76 0 -24 -4 -46 -10 -49 -21 -13 -7 -46 83 -204 50 -89 98 -173 105
-187 11 -19 19 -24 35 -20 12 3 31 6 43 6 23 0 19 -18 64 269 l21 133 -25 27
c-56 59 -13 151 70 151 46 0 94 -45 94 -88 0 -32 -47 -92 -73 -92 -9 0 -17
-14 -21 -37 -3 -21 -15 -92 -25 -158 -11 -66 -24 -139 -29 -162 -9 -41 -8 -43
21 -58 16 -8 33 -12 38 -10 4 3 41 49 81 102 58 78 73 105 75 136 4 70 56 99
101 57 41 -39 19 -100 -36 -100 -22 -1 -41 -19 -107 -105 -121 -158 -115 -163
49 -37 404 310 386 295 386 323 0 45 72 57 91 15 16 -35 -3 -66 -41 -66 -28 0
-81 -36 -260 -177 -30 -24 -59 -47 -65 -51 -124 -93 -213 -168 -207 -174 7 -7
99 15 137 33 11 5 43 16 70 24 66 19 166 53 185 64 8 4 38 13 65 20 61 15 75
25 97 73 24 52 58 72 114 65 24 -2 54 -13 64 -22 16 -15 20 -15 20 -3 0 19
-38 54 -72 67 -16 6 -28 17 -28 26 0 25 -47 154 -70 190 -27 44 -106 126 -149
156 -113 76 -223 110 -371 114 -63 2 -126 1 -140 -1z"/>
<path d="M952 1904 c-43 -30 -18 -104 36 -104 48 0 71 70 34 103 -23 21 -41
21 -70 1z"/>
<path d="M760 1859 c-19 -5 -52 -14 -72 -19 -48 -14 -131 -76 -164 -125 -14
-21 -31 -60 -37 -87 -8 -34 -17 -48 -29 -48 -9 0 -20 -4 -23 -10 -4 -6 5 -10
20 -10 32 0 74 -27 85 -54 9 -24 30 -33 270 -110 96 -31 184 -61 195 -65 11
-5 51 -19 89 -30 62 -20 71 -20 85 -7 14 14 8 23 -58 83 -41 38 -97 89 -125
115 -41 39 -58 48 -88 48 -39 0 -68 27 -68 62 0 26 36 58 64 58 29 0 69 -46
63 -72 -5 -19 1 -26 153 -162 79 -70 110 -89 110 -67 0 8 -61 116 -179 317
-40 68 -45 72 -84 77 -45 6 -87 43 -87 77 0 36 -48 48 -120 29z"/>
<path d="M2176 1515 c-26 -26 -20 -70 11 -90 24 -16 30 -16 51 -4 32 18 43 50
28 80 -14 30 -66 38 -90 14z"/>
<path d="M426 1501 c-14 -16 -15 -23 -6 -41 16 -31 74 -25 78 8 7 48 -40 69
-72 33z"/>
<path d="M301 1414 c-141 -65 -233 -177 -265 -325 -16 -73 -16 -80 3 -167 20
-94 49 -160 85 -200 30 -33 71 -74 92 -91 18 -16 124 -70 136 -71 4 0 5 13 2
30 -11 53 4 97 40 119 38 24 66 26 111 10 29 -11 38 -8 131 47 54 32 106 63
115 69 20 12 79 47 134 79 22 12 56 32 75 44 47 29 103 61 159 92 65 36 67 55
5 45 -26 -4 -64 -13 -84 -20 -19 -8 -96 -30 -170 -50 -74 -20 -144 -40 -156
-44 -11 -5 -45 -14 -76 -20 -44 -10 -57 -17 -62 -34 -6 -25 -54 -57 -84 -57
-24 0 -70 38 -73 60 -5 43 3 59 39 80 l37 23 37 -21 c31 -17 44 -18 85 -10 26
5 57 13 68 18 11 6 56 18 100 29 44 11 116 29 160 41 44 12 108 28 143 37 48
12 62 19 60 32 -3 14 -28 16 -213 19 -122 1 -221 -2 -238 -8 -38 -13 -67 3
-67 36 0 36 43 54 70 29 17 -15 47 -18 236 -23 153 -3 215 -2 210 6 -3 6 -21
14 -38 18 -18 3 -39 10 -48 14 -8 5 -62 23 -120 40 -58 18 -130 40 -160 50
-201 67 -251 80 -270 70 -32 -17 -88 -12 -107 10 -22 25 -35 24 -102 -6z"/>
<path d="M2296 1396 c-30 -25 -47 -31 -82 -30 -26 1 -52 8 -62 17 -22 20 -58
22 -92 4 -14 -7 -106 -39 -205 -71 -99 -32 -189 -62 -200 -66 -11 -5 -33 -11
-49 -15 -57 -12 -17 -15 70 -5 49 6 146 16 217 24 108 11 130 16 148 34 24 26
51 28 74 6 42 -43 -14 -104 -69 -75 -19 11 -54 10 -197 -4 -243 -23 -261 -25
-256 -38 5 -15 44 -23 202 -42 72 -8 148 -20 170 -26 22 -5 87 -16 145 -24 58
-8 125 -18 150 -23 34 -6 52 -5 72 7 23 13 31 13 52 1 34 -18 42 -47 20 -71
-22 -24 -56 -24 -78 0 -18 20 -75 34 -236 57 -58 8 -179 26 -270 40 -91 14
-182 27 -202 31 -34 5 -38 3 -38 -17 0 -21 35 -59 54 -60 9 0 49 -24 120 -73
23 -15 44 -20 88 -19 47 1 61 -2 78 -20 44 -47 11 -118 -55 -118 -39 0 -75 31
-75 65 0 14 -10 26 -25 33 -14 7 -31 16 -38 22 -17 14 -73 50 -129 83 -46 27
-46 27 -70 8 -21 -18 -22 -22 -9 -43 8 -13 51 -86 95 -163 44 -77 87 -145 95
-152 9 -6 33 -14 54 -17 64 -10 95 -83 62 -146 -8 -16 -23 -34 -32 -39 -29
-17 4 -13 37 4 16 8 34 24 40 35 9 17 21 20 91 20 136 0 296 28 375 65 70 33
164 127 201 200 17 33 39 95 48 138 18 76 18 79 -3 165 -35 144 -105 248 -208
306 l-40 22 -38 -30z"/>
<path d="M1155 1012 c-22 -15 -69 -45 -105 -66 -36 -22 -67 -43 -70 -46 -3 -4
-23 -17 -45 -29 -22 -12 -60 -35 -85 -51 -25 -16 -70 -43 -100 -61 -30 -18
-76 -48 -102 -66 -26 -18 -52 -33 -57 -33 -4 0 -11 -21 -14 -46 -6 -53 -35
-90 -80 -100 -19 -4 -25 -9 -17 -14 14 -8 90 6 105 21 5 5 212 9 517 9 l508 0
0 23 c0 13 7 38 15 55 16 30 15 32 -37 122 -29 50 -65 113 -80 138 -15 26 -32
59 -38 75 -8 18 -19 27 -35 27 -13 0 -26 -3 -28 -7 -2 -5 -1 -65 4 -135 7
-109 12 -132 31 -158 26 -35 17 -63 -22 -68 -63 -10 -87 22 -54 73 13 21 15
44 9 154 -8 140 -8 140 -72 141 -36 0 -65 -66 -58 -132 7 -64 -7 -86 -58 -95
-29 -4 -40 -1 -61 20 -48 48 -25 120 42 133 22 4 34 17 52 55 l23 50 -21 19
c-12 11 -22 20 -24 20 -2 0 -21 -13 -43 -28z"/>
<path d="M420 663 c-24 -17 -27 -65 -4 -87 25 -25 79 -20 98 9 21 31 20 48 -1
67 -26 22 -69 27 -93 11z"/>
<path d="M1680 591 c-17 -32 -12 -60 14 -76 51 -34 108 13 86 70 -8 21 -16 25
-49 25 -30 0 -43 -5 -51 -19z"/>
</g>
</svg>
